<?xml version="1.0" standalone="no"?>
<!DOCTYPE svg PUBLIC "-//W3C//DTD SVG 20010904//EN"
 "http://www.w3.org/TR/2001/REC-SVG-20010904/DTD/svg10.dtd">
<svg version="1.0" xmlns="http://www.w3.org/2000/svg"
 width="832.000000pt" height="832.000000pt" viewBox="0 0 832.000000 832.000000"
 preserveAspectRatio="xMidYMid meet">
<metadata>
Created by potrace 1.14, written by Peter Selinger 2001-2017
</metadata>
<g transform="translate(0.000000,832.000000) scale(0.100000,-0.100000)"
fill="#000000" stroke="none">
<path d="M22 6730 c-18 -5 -17 -10 17 -97 20 -51 40 -95 44 -99 4 -4 7 -13 7
-21 0 -7 9 -32 19 -56 10 -23 110 -271 221 -552 111 -280 208 -523 215 -540 7
-16 39 -95 70 -175 31 -80 64 -163 74 -185 10 -22 24 -58 32 -80 7 -22 17 -45
21 -51 5 -7 11 -20 13 -30 2 -11 20 -59 40 -109 20 -49 40 -99 44 -110 5 -11
13 -31 19 -45 6 -14 21 -50 32 -80 11 -30 25 -64 30 -75 5 -11 21 -51 36 -90
14 -38 32 -83 39 -100 13 -31 27 -66 30 -75 1 -3 9 -22 18 -44 9 -21 17 -41
17 -43 0 -3 6 -19 14 -36 8 -18 44 -108 81 -202 36 -93 72 -183 79 -200 12
-26 24 -56 31 -75 1 -3 5 -14 10 -25 4 -11 101 -254 215 -540 114 -286 211
-529 215 -540 5 -11 9 -22 10 -25 7 -20 54 -136 75 -185 9 -22 23 -58 30 -80
7 -22 16 -44 20 -50 4 -5 20 -44 35 -85 16 -41 35 -91 43 -110 9 -19 17 -40
18 -46 1 -6 9 -27 17 -45 9 -19 25 -59 37 -89 20 -55 28 -73 48 -120 18 -41
74 -184 76 -195 2 -5 10 -26 18 -45 9 -19 22 -50 28 -67 l12 -33 458 0 458 0
12 33 c7 17 22 52 33 77 34 77 108 254 111 265 1 6 12 32 24 59 12 27 22 52
22 55 0 4 10 27 22 52 12 24 22 46 23 49 0 6 23 64 46 115 9 22 29 69 43 105
15 36 31 74 36 85 5 11 43 103 85 205 42 102 80 194 85 205 5 11 26 61 46 110
20 50 42 104 49 120 8 17 26 59 40 95 15 36 36 84 46 107 10 23 19 44 19 48 0
3 10 27 21 53 25 56 27 60 115 274 38 92 71 168 74 168 5 0 28 -54 35 -80 2
-5 27 -65 50 -115 7 -16 30 -70 50 -120 44 -107 53 -128 94 -222 17 -39 31
-74 31 -77 0 -3 11 -29 24 -58 13 -29 41 -93 61 -143 21 -49 43 -103 51 -120
7 -16 25 -59 39 -95 15 -36 33 -78 40 -95 8 -16 55 -129 105 -250 50 -121 97
-233 104 -250 13 -28 24 -54 56 -130 7 -16 28 -68 47 -115 19 -47 42 -101 50
-120 44 -99 65 -150 67 -160 1 -3 14 -33 29 -67 l28 -63 458 0 458 0 13 43 c8
23 17 47 21 52 3 6 28 64 54 130 25 66 53 134 60 150 16 38 79 198 80 205 1 3
9 22 18 44 9 21 17 40 17 43 0 2 7 20 17 41 9 20 17 39 17 42 2 9 367 923 386
965 10 22 34 82 54 134 20 51 42 107 50 124 8 18 37 93 66 167 47 121 61 155
91 225 4 11 71 180 149 375 77 195 145 365 150 378 6 12 14 32 20 45 5 12 23
58 40 102 17 44 35 89 40 100 4 11 40 101 80 200 39 99 75 189 80 200 5 11 54
135 110 275 56 140 108 271 116 290 25 57 28 66 124 310 51 129 100 253 110
275 10 22 34 82 54 134 20 51 42 107 50 124 33 75 105 270 102 276 -3 5 -993
7 -1117 2 -25 -1 -44 -26 -53 -72 -2 -8 -7 -23 -12 -34 -8 -19 -302 -820 -308
-840 -2 -5 -6 -17 -9 -25 -3 -8 -10 -28 -15 -45 -6 -16 -51 -142 -102 -280
-50 -137 -92 -254 -93 -260 -1 -5 -4 -12 -7 -15 -3 -3 -11 -21 -17 -40 -12
-37 -79 -224 -90 -250 -3 -8 -7 -19 -9 -25 -1 -5 -41 -116 -89 -245 -47 -129
-116 -316 -151 -415 -36 -99 -69 -189 -74 -200 -13 -32 -111 -299 -115 -315
-2 -8 -24 -71 -50 -140 -110 -296 -125 -336 -125 -344 0 -4 -6 -22 -14 -39 -8
-18 -35 -90 -61 -162 -25 -71 -52 -143 -58 -160 -6 -16 -12 -34 -14 -40 -4
-23 -96 -261 -103 -268 -4 -4 -20 27 -35 70 -15 43 -32 83 -36 89 -5 6 -6 14
-2 17 3 4 1 7 -5 7 -7 0 -12 6 -12 13 0 11 -104 277 -195 502 -5 11 -9 23 -9
27 -1 3 -4 10 -9 14 -4 4 -7 16 -7 26 0 10 -4 18 -10 18 -5 0 -9 3 -8 8 3 7
-11 45 -37 107 -7 17 -34 84 -59 150 -26 66 -51 129 -56 140 -21 46 -162 402
-165 419 -2 10 -8 23 -13 30 -20 28 -34 89 -24 110 5 11 18 44 27 71 10 28 23
64 31 80 7 17 24 62 38 100 52 145 107 291 116 310 5 11 30 76 55 145 26 69
49 132 52 140 4 8 7 17 8 20 1 3 9 22 18 44 9 21 17 41 17 45 0 7 55 153 70
186 5 11 25 65 45 120 20 55 47 127 60 160 13 33 38 101 56 150 18 50 36 95
40 101 5 6 10 19 12 30 4 20 13 45 27 79 5 11 20 49 33 85 14 36 44 115 67
175 23 61 60 160 82 220 22 61 45 121 51 135 25 60 62 56 -468 56 -397 1 -485
-2 -485 -13 0 -7 -4 -13 -8 -13 -5 0 -9 -6 -9 -12 0 -7 -31 -98 -67 -203 -110
-310 -143 -405 -173 -495 -15 -47 -31 -86 -35 -88 -5 -2 -8 -11 -8 -21 0 -13
-55 -179 -87 -261 -3 -8 -7 -19 -9 -25 -1 -5 -23 -68 -48 -140 -26 -71 -62
-177 -82 -235 -19 -58 -39 -114 -44 -125 -5 -11 -19 -49 -31 -85 -11 -36 -23
-69 -26 -73 -3 -5 -22 40 -43 100 -20 59 -40 115 -43 123 -3 8 -17 49 -31 90
-13 41 -61 181 -106 310 -45 129 -88 255 -96 280 -8 25 -19 54 -23 65 -13 31
-63 178 -68 200 -3 11 -9 29 -14 40 -10 22 -177 507 -186 540 -3 11 -10 25
-14 31 -6 7 -110 10 -321 9 -173 0 -319 3 -325 8 -7 5 -13 6 -13 1 0 -5 -74
-9 -165 -8 -119 1 -163 -2 -157 -10 4 -6 19 -42 32 -81 12 -38 27 -75 31 -81
5 -6 10 -19 12 -30 2 -10 7 -26 10 -34 4 -8 54 -143 112 -300 59 -157 113
-298 121 -314 8 -16 14 -34 14 -39 0 -9 23 -73 107 -292 9 -22 20 -49 25 -60
5 -12 10 -27 12 -35 2 -8 6 -22 9 -30 10 -24 128 -334 131 -345 2 -5 6 -17 9
-25 3 -8 33 -89 67 -180 34 -91 67 -181 75 -200 36 -90 155 -414 155 -422 0
-9 -100 -274 -125 -333 -7 -16 -24 -59 -38 -95 -14 -36 -57 -148 -97 -250 -39
-102 -90 -232 -112 -290 -22 -58 -44 -114 -49 -125 -5 -11 -29 -72 -53 -135
-51 -133 -133 -344 -149 -380 -6 -14 -11 -27 -11 -30 -1 -3 -10 -27 -21 -54
l-19 -48 -12 38 c-6 22 -25 75 -42 119 -16 44 -58 157 -92 250 -34 94 -75 206
-92 250 -35 96 -51 140 -112 310 -26 72 -51 139 -55 150 -5 11 -18 46 -30 78
-44 121 -60 165 -90 244 -17 45 -31 89 -31 97 0 8 -3 16 -7 18 -5 2 -21 41
-37 88 -15 47 -39 112 -51 145 -13 33 -51 137 -85 230 -34 94 -65 179 -70 190
-5 11 -29 77 -54 147 -25 70 -52 144 -60 165 -8 21 -40 108 -71 193 -60 164
-93 253 -182 495 -30 83 -66 182 -80 220 -13 39 -29 79 -34 90 -5 11 -20 52
-33 90 -13 39 -38 106 -54 150 -16 44 -51 139 -76 210 -26 72 -51 137 -56 146
-5 9 -13 34 -19 55 -20 73 28 68 -575 68 -299 1 -553 -1 -564 -4z"/>
</g>
</svg>
